<svg width="32" height="23" viewBox="0 0 32 23" fill="none" xmlns="http://www.w3.org/2000/svg">
<path fill-rule="evenodd" clip-rule="evenodd" d="M0 1.5C0 1.10218 0.240816 0.720645 0.66947 0.43934C1.09812 0.158036 1.67951 0 2.28571 0H29.7143C30.3205 0 30.9019 0.158036 31.3305 0.43934C31.7592 0.720645 32 1.10218 32 1.5C32 1.89782 31.7592 2.27936 31.3305 2.56066C30.9019 2.84196 30.3205 3 29.7143 3H2.28571C1.67951 3 1.09812 2.84196 0.66947 2.56066C0.240816 2.27936 0 1.89782 0 1.5Z" fill="black"/>
<path fill-rule="evenodd" clip-rule="evenodd" d="M0 11.5C0 11.1022 0.240816 10.7206 0.66947 10.4393C1.09812 10.158 1.67951 10 2.28571 10H29.7143C30.3205 10 30.9019 10.158 31.3305 10.4393C31.7592 10.7206 32 11.1022 32 11.5C32 11.8978 31.7592 12.2794 31.3305 12.5607C30.9019 12.842 30.3205 13 29.7143 13H2.28571C1.67951 13 1.09812 12.842 0.66947 12.5607C0.240816 12.2794 0 11.8978 0 11.5Z" fill="black"/>
<path fill-rule="evenodd" clip-rule="evenodd" d="M0 21.5C0 21.1022 0.240816 20.7206 0.66947 20.4393C1.09812 20.158 1.67951 20 2.28571 20H16C16.6062 20 17.1876 20.158 17.6162 20.4393C18.0449 20.7206 18.2857 21.1022 18.2857 21.5C18.2857 21.8978 18.0449 22.2794 17.6162 22.5607C17.1876 22.842 16.6062 23 16 23H2.28571C1.67951 23 1.09812 22.842 0.66947 22.5607C0.240816 22.2794 0 21.8978 0 21.5Z" fill="black"/>
</svg>
