<svg width="32" height="23" viewBox="0 0 32 23" fill="none" xmlns="http://www.w3.org/2000/svg">
<path d="M0.5 1.5C0.5 1.31888 0.610226 1.07627 0.943798 0.857364C1.27704 0.638673 1.75889 0.5 2.28571 0.5H29.7143C30.2411 0.5 30.723 0.638673 31.0562 0.857364C31.3898 1.07627 31.5 1.31888 31.5 1.5C31.5 1.68112 31.3898 1.92373 31.0562 2.14264C30.723 2.36133 30.2411 2.5 29.7143 2.5H2.28571C1.75889 2.5 1.27704 2.36133 0.943798 2.14264C0.610226 1.92373 0.5 1.68112 0.5 1.5Z" fill="#E1CDA6" stroke="#E1CDA6"/>
<path d="M0.5 11.5C0.5 11.3189 0.610226 11.0763 0.943798 10.8574C1.27704 10.6387 1.75889 10.5 2.28571 10.5H29.7143C30.2411 10.5 30.723 10.6387 31.0562 10.8574C31.3898 11.0763 31.5 11.3189 31.5 11.5C31.5 11.6811 31.3898 11.9237 31.0562 12.1426C30.723 12.3613 30.2411 12.5 29.7143 12.5H2.28571C1.75889 12.5 1.27704 12.3613 0.943798 12.1426C0.610226 11.9237 0.5 11.6811 0.5 11.5Z" fill="#E1CDA6" stroke="#E1CDA6"/>
<path d="M0.5 21.5C0.5 21.3189 0.610226 21.0763 0.943798 20.8574C1.27704 20.6387 1.75889 20.5 2.28571 20.5H16C16.5268 20.5 17.0087 20.6387 17.3419 20.8574C17.6755 21.0763 17.7857 21.3189 17.7857 21.5C17.7857 21.6811 17.6755 21.9237 17.3419 22.1426C17.0087 22.3613 16.5268 22.5 16 22.5H2.28571C1.75889 22.5 1.27704 22.3613 0.943798 22.1426C0.610226 21.9237 0.5 21.6811 0.5 21.5Z" fill="#E1CDA6" stroke="#E1CDA6"/>
</svg>
